<svg width="16" height="16" viewBox="0 0 16 16" fill="none" xmlns="http://www.w3.org/2000/svg">
<path d="M8 12.1905C9.1 12.1905 10 11.5048 10 10.6667C10 9.82857 9.1 9.14286 8 9.14286C6.9 9.14286 6 9.82857 6 10.6667C6 11.5048 6.9 12.1905 8 12.1905ZM14 5.33333H13V3.80952C13 1.70667 10.76 0 8 0C5.24 0 3 1.70667 3 3.80952V5.33333H2C0.9 5.33333 0 6.01905 0 6.85714V14.4762C0 15.3143 0.9 16 2 16H14C15.1 16 16 15.3143 16 14.4762V6.85714C16 6.01905 15.1 5.33333 14 5.33333ZM4.9 3.80952C4.9 2.50667 6.29 1.44762 8 1.44762C9.71 1.44762 11.1 2.50667 11.1 3.80952V5.33333H4.9V3.80952ZM14 14.4762H2V6.85714H14V14.4762Z" fill="#B7B7B7"/>
</svg>
