<svg width="141" height="29" viewBox="0 0 141 29" fill="none" xmlns="http://www.w3.org/2000/svg">
<path d="M4.67045 5.54545L8.8892 18.8068H9.05114L13.2784 5.54545H17.3693L11.3523 23H6.59659L0.571023 5.54545H4.67045ZM23.1605 5.54545V23H19.4702V5.54545H23.1605ZM26.1967 23V5.54545H37.9581V8.58807H29.8871V12.7472H37.353V15.7898H29.8871V19.9574H37.9922V23H26.1967ZM40.2273 8.58807V5.54545H54.5625V8.58807H49.2188V23H45.571V8.58807H40.2273Z" fill="#FFAF19"/>
<path d="M57.2088 7.64489V6.27273H69.3377V7.64489H64.0369V23H62.5096V7.64489H57.2088ZM72.7763 23V6.27273H78.1751C79.3621 6.27273 80.3531 6.48781 81.1481 6.91797C81.9485 7.34268 82.5502 7.93347 82.9531 8.69034C83.3615 9.44176 83.5657 10.3048 83.5657 11.2795C83.5657 12.2541 83.3615 13.1145 82.9531 13.8604C82.5502 14.6064 81.9512 15.189 81.1562 15.6083C80.3613 16.0276 79.3757 16.2372 78.1996 16.2372H73.6012V14.8406H78.1587C79.0299 14.8406 79.7541 14.6963 80.3313 14.4077C80.9139 14.1191 81.3468 13.708 81.63 13.1744C81.9186 12.6407 82.0629 12.0091 82.0629 11.2795C82.0629 10.5498 81.9186 9.91276 81.63 9.36825C81.3414 8.8183 80.9058 8.39358 80.3232 8.0941C79.746 7.79462 79.0163 7.64489 78.1342 7.64489H74.3036V23H72.7763ZM80.1516 15.4531L84.2681 23H82.5039L78.4283 15.4531H80.1516ZM87.3105 23H85.7097L91.7946 6.27273H93.4281L99.513 23H97.9121L92.6685 8.25746H92.5542L87.3105 23ZM88.4622 16.5884H96.7605V17.9606H88.4622V16.5884ZM100.832 6.27273L106.059 21.0153H106.206L111.434 6.27273H113.034L106.95 23H105.316L99.2312 6.27273H100.832ZM115.901 23V6.27273H125.604V7.64489H117.429V13.9421H125.09V15.3143H117.429V21.6278H125.768V23H115.901ZM129.558 23V6.27273H131.085V21.6278H139.056V23H129.558Z" fill="black"/>
</svg>
